<svg xmlns="http://www.w3.org/2000/svg" width="900" height="900" viewBox="0 0 900 900" role="img" aria-labelledby="title desc">
  <title id="title">Flor estilizada</title>
  <desc id="desc">Flor estilizada em traço fino dourado sobre fundo escuro.</desc>
  <rect width="900" height="900" fill="#121212"/>
  <g fill="none" stroke="#c9a55c" stroke-width="6" stroke-linecap="round">
    <path d="M450 720 C450 560 470 520 450 360"/>
    <path d="M450 360 C380 320 360 240 430 200 C470 200 500 220 520 260 C560 340 520 380 450 360"/>
    <path d="M450 420 C380 420 340 460 340 520 C360 560 400 560 450 520"/>
    <path d="M450 420 C520 420 560 460 560 520 C540 560 500 560 450 520"/>
  </g>
  <circle cx="450" cy="520" r="30" fill="#e0e0e0" opacity="0.35"/>
</svg>
